<svg xmlns="http://www.w3.org/2000/svg"><defs><symbol id="ic-baseline-arrow-right" viewBox="0 0 24 24"><path fill="currentColor" d="m10 17 5-5-5-5z"/></symbol><symbol id="ic-baseline-arrow-drop-down" viewBox="0 0 24 24"><path fill="currentColor" d="m7 10 5 5 5-5z"/></symbol><symbol id="download" fill="none" viewBox="0 0 24 24"><path stroke="currentColor" stroke-linecap="round" stroke-linejoin="round" stroke-width="2" d="M12 13V4M7 14H5a1 1 0 0 0-1 1v4a1 1 0 0 0 1 1h14a1 1 0 0 0 1-1v-4a1 1 0 0 0-1-1h-2m-1-5-4 5-4-5m9 8h.01"/></symbol><symbol id="arrow-up-right" fill="none" viewBox="0 0 24 24"><path stroke="currentColor" stroke-linecap="round" stroke-linejoin="round" stroke-width="2" d="M18 14v4.833A1.166 1.166 0 0 1 16.833 20H5.167A1.167 1.167 0 0 1 4 18.833V7.167A1.166 1.166 0 0 1 5.167 6h4.618m4.447-2H20v5.768m-7.889 2.121 7.778-7.778"/></symbol><symbol id="docs" viewBox="0 0 20 20"><path d="M9 2a1 1 0 0 0 0 2h2a1 1 0 1 0 0-2z"/><path fill-rule="evenodd" d="M4 5a2 2 0 0 1 2-2 3 3 0 0 0 3 3h2a3 3 0 0 0 3-3 2 2 0 0 1 2 2v11a2 2 0 0 1-2 2H6a2 2 0 0 1-2-2zm3 4a1 1 0 0 0 0 2h.01a1 1 0 1 0 0-2zm3 0a1 1 0 0 0 0 2h3a1 1 0 1 0 0-2zm-3 4a1 1 0 1 0 0 2h.01a1 1 0 1 0 0-2zm3 0a1 1 0 1 0 0 2h3a1 1 0 1 0 0-2z" clip-rule="evenodd"/></symbol><symbol id="expand" viewBox="0 0 512 512"><path d="M464.57 486.4H282.79c-12.051 0-21.828-9.773-21.828-21.828 0-12.051 9.773-21.828 21.828-21.828h159.95v-373.5H69.24v154.39c0 12.051-9.773 21.828-21.828 21.828-12.051.004-21.816-9.77-21.816-21.816V47.436c0-12.055 9.773-21.82 21.824-21.82h417.15c12.047 0 21.82 9.766 21.82 21.82v417.15c0 12.059-9.773 21.824-21.824 21.824z"/><path d="M390.2 143.61v79.879c0 12.059-9.766 21.828-21.828 21.828s-21.828-9.766-21.828-21.828v-27.172l-91.164 91.164c-4.254 4.254-9.82 6.383-15.441 6.383a21.7 21.7 0 0 1-15.387-6.383c-8.566-8.508-8.566-22.371 0-30.879l91.117-91.172h-27.117c-12.059 0-21.828-9.766-21.828-21.828 0-12.059 9.766-21.828 21.828-21.828h79.82c12.059.008 21.828 9.777 21.828 21.836M197.47 486.4H47.43c-12.051 0-21.824-9.766-21.824-21.82V314.54c0-12.051 9.773-21.828 21.828-21.828h150.04c12.051 0 21.828 9.773 21.828 21.828v150.04c-.012 12.055-9.781 21.82-21.832 21.82M69.25 442.755h106.39v-106.39H69.25z"/></symbol><symbol id="organization" viewBox="0 0 512 512"><path d="M373.2 204.54c20.734-2.305 36.402-19.812 36.402-40.703v-30.719c0-22.578-18.379-40.961-40.961-40.961h-30.719c-20.891 0-38.398 15.668-40.703 36.402l-.512 4.559h-102.14c-28.21 0-51.199 22.988-51.199 51.199v27.699l-3.43 1.23c-22.476 7.988-37.53 29.285-37.53 53.043 0 31.078 25.242 56.32 56.32 56.32s56.32-25.242 56.32-56.32c0-23.758-15.105-45.055-37.531-53.043l-3.43-1.23v-27.7c0-11.315 9.164-20.48 20.48-20.48h102.14l.512 4.56c2.097 18.84 17.305 34.046 36.148 36.147l4.558.512v91.902h-61.44c-22.579 0-40.962 18.379-40.962 40.96v40.962c0 22.578 18.38 40.96 40.961 40.96h92.16c22.578 0 40.961-18.378 40.961-40.96v-40.961c0-20.891-15.668-38.398-36.402-40.703l-4.558-.512v-91.699l4.558-.512zm-188.88 61.695c0 14.133-11.469 25.602-25.602 25.602s-25.602-11.469-25.602-25.602 11.469-25.602 25.602-25.602 25.602 11.469 25.602 25.602m194.56 71.68v40.961c0 5.633-4.61 10.238-10.238 10.238h-92.16c-5.633 0-10.238-4.61-10.238-10.238v-40.961c0-5.633 4.61-10.238 10.238-10.238h92.16c5.633 0 10.238 4.61 10.238 10.238m-40.961-163.84c-5.633 0-10.238-4.61-10.238-10.238v-30.719c0-5.633 4.61-10.238 10.238-10.238h30.719c5.633 0 10.238 4.61 10.238 10.238v30.719c0 5.633-4.61 10.238-10.238 10.238z"/></symbol><symbol id="trashcan" fill="none" viewBox="0 0 24 24"><path stroke="currentColor" stroke-linejoin="round" stroke-width="2" d="M5 7h14m-9 3v8m4-8v8M10 3h4a1 1 0 0 1 1 1v3H9V4a1 1 0 0 1 1-1ZM6 7h12v13a1 1 0 0 1-1 1H7a1 1 0 0 1-1-1z"/></symbol><symbol id="local" viewBox="0 0 512 512"><path d="m189.66 26.344-11.312 11.312L196.692 56h-68.688V32c0-4.426-3.586-8-8-8h-96c-4.414 0-8 3.574-8 8v64c0 4.426 3.586 8 8 8h96c4.414 0 8-3.574 8-8V72h68.688l-18.344 18.344 11.312 11.312 32-32c1.559-1.559 2.344-3.61 2.344-5.656s-.785-4.098-2.344-5.656zM112.004 88h-80V40h80z"/><path d="M488 24H232c-4.414 0-8 3.574-8 8v64c0 4.426 3.586 8 8 8h224c22.055 0 40-17.945 40-40V32c0-4.426-3.586-8-8-8m-8 40c0 13.23-10.77 24-24 24H240V40h240zm-290.34 90.34-11.312 11.312 18.344 18.344h-68.688v-24c0-4.426-3.586-8-8-8h-96c-4.414 0-8 3.574-8 8v64c0 4.426 3.586 8 8 8h96c4.414 0 8-3.574 8-8v-24h68.688l-18.344 18.344 11.312 11.312 32-32c1.559-1.559 2.344-3.61 2.344-5.656s-.785-4.098-2.344-5.656zm-77.656 61.656h-80v-48h80z"/><path d="M488 152H232c-4.414 0-8 3.574-8 8v64c0 4.426 3.586 8 8 8h224c22.055 0 40-17.945 40-40v-32c0-4.426-3.586-8-8-8m-8 40c0 13.23-10.77 24-24 24H240v-48h240zm-290.34 90.34-11.312 11.312 18.344 18.344h-68.688v-24c0-4.426-3.586-8-8-8h-96c-4.414 0-8 3.574-8 8v64c0 4.426 3.586 8 8 8h96c4.414 0 8-3.574 8-8v-24h68.688l-18.344 18.344 11.312 11.312 32-32c1.559-1.559 2.344-3.61 2.344-5.656s-.785-4.098-2.344-5.656zm-77.656 61.656h-80v-48h80z"/><path d="M488 280H232c-4.414 0-8 3.574-8 8v64c0 4.426 3.586 8 8 8h224c22.055 0 40-17.945 40-40v-32c0-4.426-3.586-8-8-8m-8 40c0 13.23-10.77 24-24 24H240v-48h240zm-290.34 90.34-11.312 11.312 18.344 18.344h-68.688v-24c0-4.426-3.586-8-8-8h-96c-4.414 0-8 3.574-8 8v64c0 4.426 3.586 8 8 8h96c4.414 0 8-3.574 8-8v-24h68.688l-18.344 18.344 11.312 11.312 32-32c1.559-1.559 2.344-3.61 2.344-5.656s-.785-4.098-2.344-5.656zm-77.656 61.656h-80v-48h80z"/><path d="M488 408H232c-4.414 0-8 3.574-8 8v64c0 4.426 3.586 8 8 8h224c22.055 0 40-17.945 40-40v-32c0-4.426-3.586-8-8-8m-8 40c0 13.23-10.77 24-24 24H240v-48h240z"/></symbol><symbol id="git" viewBox="0 0 512 512"><path d="M416 176a80 80 0 0 0-50.605 18.027A80 80 0 0 0 337.602 240h-145.6a80 80 0 0 1-51.332-18.664 79.98 79.98 0 0 1-27.387-47.258 80 80 0 0 0 45.09-28.008A80.02 80.02 0 0 0 176.002 96c-4.398-106.16-155.6-106.08-160 0a80 80 0 0 0 18.027 50.605 80 80 0 0 0 45.973 27.793v163.2a80 80 0 0 0-45.973 27.793 80 80 0 0 0-18.027 50.605c4.398 106.16 155.6 106.08 160 0a80 80 0 0 0-18.027-50.605 80 80 0 0 0-45.973-27.793v-99.281a112 112 0 0 0 80 33.68h145.6c21.52 93.281 155.68 80.559 158.4-16a80 80 0 0 0-23.43-56.57 80.02 80.02 0 0 0-56.57-23.43zM48 96c2-63.441 94-63.441 96 0-2 63.441-94 63.441-96 0m96 320c-2 63.441-94 63.441-96 0 2-63.441 94-63.441 96 0m272-112c-63.441-2-63.441-94 0-96 63.441 2 63.441 94 0 96"/></symbol><symbol id="playground" viewBox="0 0 512 512"><path d="M214.59 278.59h60.234c4.77 0 9.262 2.258 12.102 6.094l146.07 197.2h53.613c8.316 0 15.059 6.742 15.059 15.059s-6.742 15.059-15.059 15.059H425.41a15.06 15.06 0 0 1-12.098-6.094l-146.07-197.2h-52.648v188.23c0 8.316-6.742 15.059-15.059 15.059-8.32 0-15.062-6.742-15.062-15.059V459.29H33.883v37.648c0 8.316-6.742 15.059-15.059 15.059s-15.059-6.742-15.059-15.059v-391.53a15.06 15.06 0 0 1 4.41-10.648L98.527 4.408c5.883-5.879 15.418-5.879 21.297 0l90.352 90.352a15.07 15.07 0 0 1 4.414 10.648zm-30.121 0V111.65l-75.293-75.293-75.293 75.293v166.94zm-150.59 30.117v45.176h150.59v-45.176zm0 120.47h150.59v-45.176H33.879zm75.293-210.82c-29.109 0-52.707-23.598-52.707-52.703 0-29.109 23.598-52.707 52.707-52.707s52.707 23.598 52.707 52.707c0 29.105-23.598 52.703-52.707 52.703m0-30.117c12.477 0 22.59-10.113 22.59-22.586 0-12.477-10.113-22.59-22.59-22.59-12.473 0-22.586 10.113-22.586 22.59 0 12.473 10.113 22.586 22.586 22.586m203.29 308.71c0 8.316-6.738 15.059-15.059 15.059-8.316 0-15.059-6.742-15.059-15.059v-90.352c0-8.32 6.742-15.059 15.059-15.059 8.32 0 15.059 6.738 15.059 15.059z"/></symbol><symbol id="github" viewBox="0 0 24 24"><path d="M12 0C5.374 0 0 5.373 0 12c0 5.302 3.438 9.8 8.207 11.387.599.111.793-.261.793-.577v-2.234c-3.338.726-4.033-1.416-4.033-1.416-.546-1.387-1.333-1.756-1.333-1.756-1.089-.745.083-.729.083-.729 1.205.084 1.839 1.237 1.839 1.237 1.07 1.834 2.807 1.304 3.492.997.107-.775.418-1.305.762-1.604-2.665-.305-5.467-1.334-5.467-5.931 0-1.311.469-2.381 1.236-3.221-.124-.303-.535-1.524.117-3.176 0 0 1.008-.322 3.301 1.23A11.5 11.5 0 0 1 12 5.803c1.02.005 2.047.138 3.006.404 2.291-1.552 3.297-1.23 3.297-1.23.653 1.653.242 2.874.118 3.176.77.84 1.235 1.911 1.235 3.221 0 4.609-2.807 5.624-5.479 5.921.43.372.823 1.102.823 2.222v3.293c0 .319.192.694.801.576C20.566 21.797 24 17.3 24 12c0-6.627-5.373-12-12-12"/></symbol><symbol id="home" viewBox="0 0 512 512"><path fill-rule="evenodd" d="m47.027 243.46-.64-.793a11.7 11.7 0 0 1-2.524-8.625 10.58 10.58 0 0 1 3.926-7.191l208.21-163.04 208.21 163.02a10.6 10.6 0 0 1 3.926 7.195 11.65 11.65 0 0 1-2.536 8.625l-.629.785c-4.14 4.844-11.398 5.469-16.305 1.402l-183.37-142.28a15.174 15.174 0 0 0-18.593 0l-183.37 142.28c-4.907 4.067-12.164 3.442-16.305-1.402zm358.55 208.81a2.883 2.883 0 0 0 2.84-2.852v-197.41l-152.41-118.28-152.41 118.28v197.42-.004a2.887 2.887 0 0 0 2.844 2.852h51.949v-157.28a15.17 15.17 0 0 1 15.164-15.156h164.91a15.18 15.18 0 0 1 10.715 4.441 15.15 15.15 0 0 1 4.441 10.715v157.28zm-82.277 0H188.7V310.15h134.6zm-216.87 30.316h299.14a33.23 33.23 0 0 0 23.434-9.73 33.22 33.22 0 0 0 9.723-23.439v-175.37a41.53 41.53 0 0 0 26.832 2.817 41.53 41.53 0 0 0 22.902-14.258l.648-.781h-.004a42.18 42.18 0 0 0 9.164-31.168 40.63 40.63 0 0 0-15.375-27.695l-217.55-170.34a15.154 15.154 0 0 0-18.683 0L29.1 202.962a40.6 40.6 0 0 0-15.37 27.698 42.16 42.16 0 0 0 9.164 31.164l.64.793a41.28 41.28 0 0 0 32.145 15.3 42.4 42.4 0 0 0 17.617-3.87v175.37a33.2 33.2 0 0 0 9.711 23.434 33.2 33.2 0 0 0 23.422 9.734z"/></symbol><symbol id="local" viewBox="0 0 512 512"><path d="M255.98.02C140.7.02 46.95 93.805 46.95 209.08c0 62.973 51.125 134.27 100.16 193.59s97.906 105 97.906 105a16.01 16.01 0 0 0 21.844 0s48.875-45.676 97.906-105 100.28-130.62 100.28-193.59C465.046 93.8 371.261.02 255.986.02zm0 32.03c97.984 0 177.06 79.048 177.06 177.03 0 43.66-45.336 115.8-92.844 173.28-42.043 50.872-75.082 81.528-84.219 90.22-9.102-8.66-42.152-39.32-84.219-90.22C124.25 324.878 78.82 252.74 78.82 209.08c0-97.983 79.172-177.03 177.16-177.03m.531 55.345a16 16 0 0 0-1.594.03 16 16 0 0 0-8.5 3.095l-98.625 72.75a16 16 0 0 0-3.36 22.391 16.015 16.015 0 0 0 22.391 3.36l3.407-2.501v74.062a16.01 16.01 0 0 0 15.968 16.063h139.47a16.003 16.003 0 0 0 16.063-16.063v-74l3.313 2.438a16.014 16.014 0 0 0 22.39-3.36 16.014 16.014 0 0 0-3.359-22.39L335.7 142.33a15 15 0 0 0-.469-.347l-69.78-51.465a15.95 15.95 0 0 0-8.938-3.125zm-.531 35.938 53.75 39.656v81.656h-37.781v-26.47a16 16 0 0 0-4.687-11.503 16 16 0 0 0-11.5-4.684c-4.25.039-8.31 1.77-11.277 4.809a16 16 0 0 0-4.567 11.379v26.469h-37.656v-81.75z"/></symbol><symbol id="observe" viewBox="0 0 512 512"><path d="M442.37 268.29c5.633-7.168 5.633-16.895 0-24.062-3.582-4.098-83.969-98.305-186.37-98.305S73.21 239.618 69.63 243.716c-5.633 7.168-5.633 16.895 0 24.062 3.582 4.094 83.969 98.301 186.37 98.301s182.79-94.207 186.37-97.789m-201.21-74.242a22.94 22.94 0 0 1 23.039 23.039 22.94 22.94 0 0 1-23.039 23.039 22.94 22.94 0 0 1-23.039-23.039 22.944 22.944 0 0 1 23.039-23.039m14.848 134.66c-65.023 0-122.37-49.152-145.92-72.703 14.848-14.848 43.52-39.938 79.359-56.32-3.586 8.703-5.633 17.922-5.633 28.16 0 39.938 32.258 72.703 72.703 72.703 39.938 0 72.703-32.258 72.703-72.703 0-9.727-2.047-19.457-5.633-28.16 35.84 16.383 64.512 41.473 79.36 56.32-24.57 23.551-81.915 72.703-146.94 72.703zM18.945 198.66h25.602c3.586 0 6.145-3.07 6.145-6.144l-.004-88.574h88.574c3.585 0 6.144-3.07 6.144-6.145V72.195c0-3.586-3.07-6.144-6.144-6.144H18.942c-3.586 0-6.145 3.07-6.145 6.144v120.32c0 3.586 3.07 6.145 6.145 6.145zm120.835 209.4H51.202v-88.574c0-3.586-3.07-6.144-6.144-6.144H19.454c-3.585 0-6.144 3.07-6.144 6.144v120.32c0 3.586 3.07 6.145 6.144 6.145h120.32c3.586 0 6.145-3.07 6.145-6.145v-25.602c.004-3.07-3.07-6.144-6.14-6.144zM493.05 65.535H372.22c-3.586 0-6.144 3.07-6.144 6.145v25.6c0 3.586 3.07 6.145 6.144 6.145h88.578V192c0 3.586 3.07 6.145 6.145 6.145h25.602c3.585 0 6.144-3.07 6.144-6.145l-.004-119.81c.512-3.582-2.559-6.656-5.633-6.656zm0 247.805h-25.602c-3.586 0-6.144 3.07-6.144 6.145v88.573h-89.086c-3.586 0-6.145 3.07-6.145 6.145v25.602c0 3.586 3.07 6.144 6.145 6.144h120.32c3.585 0 6.144-3.07 6.144-6.144v-120.32c.512-3.586-2.559-6.145-5.633-6.145z"/></symbol><symbol id="right_arrow" viewBox="0 0 512 512"><path d="M160.26 499.2c-13.312 0-26.113-5.121-36.352-14.848-19.969-19.969-19.969-52.734 0-72.703l155.13-155.65-155.14-155.65c-19.969-19.969-19.969-52.734 0-72.703s52.734-19.969 72.703 0l192 192c9.727 9.727 14.848 22.527 14.848 36.352s-5.633 26.625-14.848 36.352l-192 192c-10.242 9.727-23.555 14.848-36.352 14.848z"/></symbol><symbol id="remote" viewBox="0 0 512 512"><path d="M369.05 239.75c0-7.102.25-14.25 0-21.352-.55-15.551-13.301-27.648-28.75-27.852-3.45-.05-6.95 0-10.398 0l-156.45.004c-10.199 0-19.301 3.852-25.398 12.3-4 5.552-5.102 12.103-5.102 18.75v242.1c0 10.2 4.399 19.25 12.852 25.103 5.899 4.05 12.648 4.7 19.5 4.7l165.2-.005h.352c15.602-.449 28-13 28.148-28.648v-225.1zm-71.152 55.148v.398c-.398 19.25-14.199 36.852-33.398 40.551-17.352 3.352-35.102-4.148-44.352-19.3-9.352-15.302-7.398-35 3.8-48.7C234.75 254.7 254 249.398 270 255.347c16.449 6.149 27.55 21.45 27.898 39.051v.399zM121.4 104.1a209 209 0 0 1 15.199-13.801c1.2-1 2.45-1.95 3.7-2.95.898-.698.398-.3-1.602 1.25.398-.3.75-.6 1.148-.85.55-.45 1.148-.852 1.75-1.302 2.7-2 5.398-3.898 8.2-5.75 10.75-7.199 22.198-13.3 34.101-18.352l-3.601 1.5c16.602-6.949 34.102-11.699 51.949-14.148-1.352.2-2.649.352-4 .551a210.5 210.5 0 0 1 55.5 0c-1.352-.199-2.649-.351-4-.55a208.3 208.3 0 0 1 51.949 14.147l-3.602-1.5c11.898 5.051 23.352 11.148 34.102 18.352 2.7 1.801 5.3 3.649 7.898 5.551.7.5 1.352 1 2 1.5.399.301.75.602 1.149.852-.649-.5-1.25-.95-1.899-1.45 1.399.95 2.649 2.102 3.95 3.149 5.3 4.352 10.352 8.95 15.199 13.801 5.55 5.55 15.75 6 21.199 0 5.5-6 5.949-15.301 0-21.199-31.852-31.75-73.5-53.801-117.95-61.199-21.5-3.602-43.301-4.398-64.95-1.55-23.198 3.05-45.3 9.3-66.601 19.101-23.051 10.648-44.148 25.7-62.148 43.648-5.551 5.551-5.95 15.75 0 21.2 6.16 5.5 15.41 5.948 21.359 0z"/><path d="M172.2 154.9c3.05-3 6.2-5.898 9.5-8.648.75-.649 1.898-1.301 2.55-2.051-.148.199-2.898 2.199-1.3 1 .5-.352.95-.7 1.45-1.102 1.75-1.3 3.5-2.5 5.3-3.699 6.95-4.648 14.352-8.602 22.051-11.852q-1.798.75-3.602 1.5a136 136 0 0 1 34-9.25c-1.351.2-2.648.352-4 .55a137.5 137.5 0 0 1 35.7 0c-1.352-.198-2.649-.35-4-.55a136 136 0 0 1 34 9.25l-3.602-1.5c7.699 3.25 15.102 7.2 22.05 11.852 1.7 1.148 3.352 2.3 5 3.5.552.398 3.552 2.7 1.352 1-2.199-1.7.75.648 1.301 1.102 3.399 2.8 6.649 5.75 9.801 8.898 5.55 5.55 15.699 6 21.199 0 5.5-5.95 5.95-15.301 0-21.199-21.301-21.148-49.102-36.102-78.75-41.102-30.602-5.148-61.301-1.148-89.551 11.801-15.5 7.102-29.699 17.301-41.75 29.301-5.55 5.55-5.95 15.75 0 21.199 6.102 5.5 15.352 5.902 21.301 0"/></symbol><symbol id="task" viewBox="0 0 512 512"><path d="M470.22 81.777h-41.336c-2.566-12.719-8.805-24.418-18.191-33.816-12.598-12.586-29.34-19.516-47.141-19.516-32.195 0-59.129 22.938-65.324 53.332H41.778c-7.367 0-13.332 5.969-13.332 13.336v375.11c0 7.363 5.965 13.328 13.332 13.328h428.44c7.371 0 13.336-5.965 13.336-13.332V95.109c0-7.367-5.965-13.336-13.332-13.336zM363.55 55.113c10.68 0 20.727 4.164 28.281 11.707 4.29 4.297 7.488 9.398 9.45 14.957h-75.439c5.5-15.52 20.32-26.664 37.707-26.664zm93.332 401.77H55.112v-348.45h348.45v101.33c0 7.352-5.98 13.336-13.336 13.336-7.352 0-13.336-5.98-13.336-13.336l.004-61.328c0-7.367-5.969-13.336-13.336-13.336s-13.336 5.969-13.336 13.336v61.332c0 22.055 17.94 40 40 40 22.055 0 40-17.941 40-40l-.004-101.34h26.668z"/><path d="M210.66 136H103.99c-7.367 0-13.336 5.969-13.336 13.336l.004 106.66c0 7.367 5.969 13.336 13.336 13.336h106.67c7.367 0 13.336-5.969 13.336-13.336l-.004-106.67c0-7.367-5.969-13.332-13.336-13.332zm-13.328 106.66h-80.004v-79.996h80.004zM210.66 296H103.99c-7.367 0-13.336 5.969-13.336 13.336v106.67c0 7.367 5.969 13.336 13.336 13.336h106.67c7.367 0 13.336-5.969 13.336-13.336v-106.67c0-7.371-5.969-13.336-13.336-13.336m-13.328 106.66h-80.004v-79.996h80.004zM416.89 376H281.78c-7.367 0-13.336 5.969-13.336 13.336s5.969 13.336 13.336 13.336h135.11c7.367 0 13.336-5.969 13.336-13.336S424.257 376 416.89 376m0-53.33H281.78c-7.367 0-13.336 5.969-13.336 13.336s5.969 13.336 13.336 13.336h135.11c7.367 0 13.336-5.969 13.336-13.336s-5.969-13.336-13.336-13.336"/><path d="M170.67 202.67c0 7.367-5.969 13.336-13.336 13.336s-13.336-5.969-13.336-13.336 5.969-13.336 13.336-13.336 13.336 5.969 13.336 13.336m0 160c0 7.367-5.969 13.336-13.336 13.336s-13.336-5.969-13.336-13.336 5.969-13.336 13.336-13.336 13.336 5.969 13.336 13.336"/></symbol><symbol id="user" viewBox="0 0 512 512"><path d="M256 16A240 240 0 0 0 86.29 86.293c-45.008 45.012-70.293 106.05-70.293 169.71s25.285 124.7 70.293 169.71c45.012 45.008 106.05 70.293 169.71 70.293s124.7-25.285 169.71-70.293a240 240 0 0 0 70.293-169.71 240 240 0 0 0-32.152-120 240.04 240.04 0 0 0-87.848-87.848 240 240 0 0 0-120-32.152zm0 32a207.96 207.96 0 0 1 137.83 52.441 208 208 0 0 1 68.426 130.63 207.96 207.96 0 0 1-35.379 143.16 176 176 0 0 0-84.32-112 111.99 111.99 0 0 0-9.988-152.809 112.001 112.001 0 0 0-188.331 74.43 112 112 0 0 0 25.203 78.379 176 176 0 0 0-53.793 47.242 175.9 175.9 0 0 0-30.527 64.758 207.97 207.97 0 0 1-35.379-143.16 207.98 207.98 0 0 1 68.426-130.63A207.97 207.97 0 0 1 255.998 48zm-80 144a80 80 0 0 1 23.43-56.57c15.004-15 35.352-23.43 56.57-23.43s41.566 8.43 56.57 23.43c15 15.004 23.43 35.352 23.43 56.57s-8.43 41.566-23.43 56.57C297.566 263.57 277.218 272 256 272s-41.566-8.43-56.57-23.43A80.02 80.02 0 0 1 176 192m-63.199 214.4A143.99 143.99 0 0 1 195.2 285.924c18.117 11.707 39.23 17.938 60.801 17.938s42.684-6.23 60.801-17.938a143.96 143.96 0 0 1 58.055 48.875 144 144 0 0 1 25.145 71.602 206.874 206.874 0 0 1-286.4 0z"/></symbol><symbol id="login" viewBox="0 0 512 512"><path d="M440.16 256A23.996 23.996 0 0 1 416 280H253.92l17.121 17.28h-.004a24.14 24.14 0 0 1 6.801 16.93 24.17 24.17 0 0 1-6.98 16.86 24.15 24.15 0 0 1-16.782 7.168 23.67 23.67 0 0 1-17.117-7.2l-57.762-58.078c-4.453-4.519-6.953-10.613-6.953-16.96s2.5-12.442 6.953-16.962l57.762-58.078a24 24 0 0 1 34.52-.766 24 24 0 0 1 7.11 17.356 24 24 0 0 1-7.55 17.168l-17.118 17.28h162.08a24 24 0 0 1 24.16 24zm-112 168h-208V88h208a24 24 0 0 0 20.785-12 24.01 24.01 0 0 0 0-24 24 24 0 0 0-20.785-12H96a24 24 0 0 0-24.16 24v384A23.996 23.996 0 0 0 96 472h231.52a24 24 0 0 0 20.785-12 24.01 24.01 0 0 0 0-24 24 24 0 0 0-20.785-12z"/></symbol><symbol id="logout" viewBox="0 0 512 512"><path d="m456.96 272.96-56.961 58.078a23.845 23.845 0 0 1-33.922 0 24.003 24.003 0 0 1 0-33.918l17.121-17.281h-163.2a24 24 0 0 1-20.785-12 24.01 24.01 0 0 1 0-24 24 24 0 0 1 20.785-12h162.24l-17.121-17.281h.004a24.212 24.212 0 0 1 11.609-40.301A24.22 24.22 0 0 1 400 180.96l57.762 58.078a23.85 23.85 0 0 1 6.687 17.13 23.86 23.86 0 0 1-7.488 16.792zM304 424H96V88h208a24 24 0 0 0 20.785-12 24.01 24.01 0 0 0 0-24A24 24 0 0 0 304 40H72a24 24 0 0 0-16.969 7.031A24 24 0 0 0 48 64.001v384a24 24 0 0 0 7.031 16.968A24 24 0 0 0 72 472h232a24 24 0 0 0 20.785-12 24.01 24.01 0 0 0 0-24A24 24 0 0 0 304 424"/></symbol><symbol id="check" viewBox="0 0 20 20"><path d="M10 .5a9.5 9.5 0 1 0 9.5 9.5A9.51 9.51 0 0 0 10 .5m3.707 8.207-4 4a1 1 0 0 1-1.414 0l-2-2a1 1 0 0 1 1.414-1.414L9 10.586l3.293-3.293a1 1 0 0 1 1.414 1.414"/></symbol><symbol id="error" viewBox="0 0 20 20"><path d="M10 .5a9.5 9.5 0 1 0 9.5 9.5A9.51 9.51 0 0 0 10 .5m3.707 11.793a1 1 0 1 1-1.414 1.414L10 11.414l-2.293 2.293a1 1 0 0 1-1.414-1.414L8.586 10 6.293 7.707a1 1 0 0 1 1.414-1.414L10 8.586l2.293-2.293a1 1 0 0 1 1.414 1.414L11.414 10z"/></symbol><symbol id="warning" viewBox="0 0 20 20"><path d="M10 .5a9.5 9.5 0 1 0 9.5 9.5A9.51 9.51 0 0 0 10 .5M10 15a1 1 0 1 1 0-2 1 1 0 0 1 0 2m1-4a1 1 0 0 1-2 0V6a1 1 0 0 1 2 0z"/></symbol><symbol id="alert" viewBox="0 0 20 20"><path d="M10 .5a9.5 9.5 0 1 0 9.5 9.5A9.51 9.51 0 0 0 10 .5M9.5 4a1.5 1.5 0 1 1 0 3 1.5 1.5 0 0 1 0-3M12 15H8a1 1 0 0 1 0-2h1v-3H8a1 1 0 0 1 0-2h2a1 1 0 0 1 1 1v4h1a1 1 0 0 1 0 2"/></symbol><symbol id="close" viewBox="0 0 20 20"><path fill-rule="evenodd" d="M4.293 4.293a1 1 0 0 1 1.414 0L10 8.586l4.293-4.293a1 1 0 1 1 1.414 1.414L11.414 10l4.293 4.293a1 1 0 0 1-1.414 1.414L10 11.414l-4.293 4.293a1 1 0 0 1-1.414-1.414L8.586 10 4.293 5.707a1 1 0 0 1 0-1.414" clip-rule="evenodd"/></symbol><symbol id="close_sm" viewBox="0 0 14 14"><path stroke="currentColor" stroke-linecap="round" stroke-linejoin="round" stroke-width="2" d="m1 1 6 6m0 0 6 6M7 7l6-6M7 7l-6 6"/></symbol><symbol id="trash_sm" viewBox="0 0 20 20"><path fill-rule="evenodd" d="M9 2a1 1 0 0 0-.894.553L7.382 4H4a1 1 0 0 0 0 2v10a2 2 0 0 0 2 2h8a2 2 0 0 0 2-2V6a1 1 0 1 0 0-2h-3.382l-.724-1.447A1 1 0 0 0 11 2zM7 8a1 1 0 0 1 2 0v6a1 1 0 1 1-2 0zm5-1a1 1 0 0 0-1 1v6a1 1 0 1 0 2 0V8a1 1 0 0 0-1-1" clip-rule="evenodd"/></symbol><symbol id="plus" viewBox="0 0 24 24"><path stroke="currentColor" stroke-linecap="round" stroke-linejoin="round" stroke-width="2" d="M5 12h14m-7 7V5"/></symbol><symbol id="pencil" fill="none" viewBox="0 0 24 24"><path stroke="currentColor" stroke-linecap="round" stroke-linejoin="round" stroke-width="2" d="M10.779 17.779 4.36 19.918 6.5 13.5m4.279 4.279 8.364-8.643a3.027 3.027 0 0 0-2.14-5.165 3.03 3.03 0 0 0-2.14.886L6.5 13.5m4.279 4.279L6.499 13.5m2.14 2.14 6.213-6.504M12.75 7.04 17 11.28"/></symbol><symbol id="filter" fill="none" viewBox="0 0 24 24"><path stroke="currentColor" stroke-linecap="round" stroke-width="2" d="M18.796 4H5.204a1 1 0 0 0-.753 1.659l5.302 6.058a1 1 0 0 1 .247.659v4.874a.5.5 0 0 0 .2.4l3 2.25a.5.5 0 0 0 .8-.4v-7.124a1 1 0 0 1 .247-.659l5.302-6.059c.566-.646.106-1.658-.753-1.658Z"/></symbol></defs></svg>